<svg width="61" height="52" viewBox="0 0 61 52" fill="none" xmlns="http://www.w3.org/2000/svg">
<path d="M17.4862 51.4709C22.2796 51.4709 26.6499 49.9112 29.8249 46.7362C33.005 43.5561 34.8514 38.8908 34.8514 32.9389H32.1059C32.1059 38.3122 30.4518 42.2265 27.8836 44.7948C25.3103 47.3681 21.6843 48.7255 17.4862 48.7255V51.4709ZM34.8514 32.9389V19.2115H32.1059V32.9389H34.8514ZM34.8514 19.2115C34.8514 13.2597 33.005 8.59436 29.8249 5.41428C26.6499 2.23921 22.2796 0.679497 17.4862 0.679497V3.42498C21.6843 3.42498 25.3103 4.78234 27.8836 7.35563C30.4518 9.9239 32.1059 13.8382 32.1059 19.2115H34.8514ZM17.4862 0.679497C12.6934 0.679497 8.30769 2.23876 5.11611 5.41139C1.9184 8.59013 0.0524063 13.2558 0.0524063 19.2115H2.79789C2.79789 13.8421 4.46671 9.92813 7.05167 7.35851C9.64277 4.7828 13.2876 3.42498 17.4862 3.42498V0.679497ZM0.0524063 19.2115V32.9389H2.79789V19.2115H0.0524063ZM0.0524063 32.9389C0.0524063 38.8946 1.9184 43.5603 5.11611 46.739C8.30769 49.9117 12.6934 51.4709 17.4862 51.4709V48.7255C13.2876 48.7255 9.64277 47.3676 7.05167 44.7919C4.46671 42.2223 2.79789 38.3083 2.79789 32.9389H0.0524063ZM17.4862 40.1458C15.7123 40.1458 14.3156 39.6064 13.3486 38.5556C12.3683 37.4904 11.6521 35.7069 11.6521 32.8703H8.90659C8.90659 36.1424 9.73466 38.683 11.3283 40.4147C12.9352 42.1609 15.1419 42.8913 17.4862 42.8913V40.1458ZM11.6521 32.8703V19.2801H8.90659V32.8703H11.6521ZM11.6521 19.2801C11.6521 16.4435 12.3683 14.66 13.3486 13.5948C14.3156 12.544 15.7123 12.0046 17.4862 12.0046V9.25913C15.1419 9.25913 12.9352 9.98953 11.3283 11.7357C9.73466 13.4675 8.90659 16.0081 8.90659 19.2801H11.6521ZM17.4862 12.0046C19.2196 12.0046 20.5998 12.5402 21.5607 13.5914C22.5355 14.6578 23.2517 16.4437 23.2517 19.2801H25.9972C25.9972 16.0079 25.1691 13.4697 23.5872 11.7391C21.9914 9.99336 19.8024 9.25913 17.4862 9.25913V12.0046ZM23.2517 19.2801V32.8703H25.9972V19.2801H23.2517ZM23.2517 32.8703C23.2517 35.7067 22.5355 37.4926 21.5607 38.559C20.5998 39.6103 19.2196 40.1458 17.4862 40.1458V42.8913C19.8024 42.8913 21.9914 42.1571 23.5872 40.4114C25.1691 38.6808 25.9972 36.1426 25.9972 32.8703H23.2517ZM51.231 3.15043V1.77769H50.7245L50.3394 2.10663L51.231 3.15043ZM38.0527 14.4069L37.1611 13.3631L36.6799 13.7741V14.4069H38.0527ZM38.0527 25.1143H36.6799V28.0322L38.9279 26.1718L38.0527 25.1143ZM49.9955 15.2306V13.8578H49.5012L49.1203 14.173L49.9955 15.2306ZM50.4074 15.2306H51.7801V13.8578H50.4074V15.2306ZM50.4074 49H49.0346V50.3727H50.4074V49ZM59.2615 49V50.3727H60.6343V49H59.2615ZM59.2615 3.15043H60.6343V1.77769H59.2615V3.15043ZM50.3394 2.10663L37.1611 13.3631L38.9443 15.4507L52.1226 4.19423L50.3394 2.10663ZM36.6799 14.4069V25.1143H39.4254V14.4069H36.6799ZM38.9279 26.1718L50.8707 16.2881L49.1203 14.173L37.1775 24.0567L38.9279 26.1718ZM49.9955 16.6033H50.4074V13.8578H49.9955V16.6033ZM49.0346 15.2306V49H51.7801V15.2306H49.0346ZM50.4074 50.3727H59.2615V47.6273H50.4074V50.3727ZM60.6343 49V3.15043H57.8888V49H60.6343ZM59.2615 1.77769H51.231V4.52317H59.2615V1.77769Z" fill="#E20074"/>
</svg>
