<svg width="71" height="52" viewBox="0 0 71 52" fill="none" xmlns="http://www.w3.org/2000/svg">
<path d="M18.2198 51.4709C23.0132 51.4709 27.3834 49.9112 30.5585 46.7362C33.7386 43.5561 35.585 38.8908 35.585 32.9389H32.8395C32.8395 38.3122 31.1854 42.2265 28.6172 44.7948C26.0439 47.3681 22.4179 48.7255 18.2198 48.7255V51.4709ZM35.585 32.9389V19.2115H32.8395V32.9389H35.585ZM35.585 19.2115C35.585 13.2597 33.7386 8.59436 30.5585 5.41428C27.3834 2.23921 23.0132 0.679497 18.2198 0.679497V3.42498C22.4179 3.42498 26.0439 4.78234 28.6172 7.35563C31.1854 9.9239 32.8395 13.8382 32.8395 19.2115H35.585ZM18.2198 0.679497C13.427 0.679497 9.04128 2.23876 5.8497 5.41139C2.65198 8.59013 0.785995 13.2558 0.785995 19.2115H3.53148C3.53148 13.8421 5.2003 9.92813 7.78526 7.35851C10.3764 4.7828 14.0212 3.42498 18.2198 3.42498V0.679497ZM0.785995 19.2115V32.9389H3.53148V19.2115H0.785995ZM0.785995 32.9389C0.785995 38.8946 2.65198 43.5603 5.8497 46.739C9.04128 49.9117 13.427 51.4709 18.2198 51.4709V48.7255C14.0212 48.7255 10.3764 47.3676 7.78526 44.7919C5.2003 42.2223 3.53148 38.3083 3.53148 32.9389H0.785995ZM18.2198 40.1458C16.4459 40.1458 15.0492 39.6064 14.0822 38.5556C13.1019 37.4904 12.3857 35.7069 12.3857 32.8703H9.64018C9.64018 36.1424 10.4682 38.683 12.0619 40.4147C13.6688 42.1609 15.8755 42.8913 18.2198 42.8913V40.1458ZM12.3857 32.8703V19.2801H9.64018V32.8703H12.3857ZM12.3857 19.2801C12.3857 16.4435 13.1019 14.66 14.0822 13.5948C15.0492 12.544 16.4459 12.0046 18.2198 12.0046V9.25913C15.8755 9.25913 13.6688 9.98953 12.0619 11.7357C10.4682 13.4675 9.64018 16.0081 9.64018 19.2801H12.3857ZM18.2198 12.0046C19.9532 12.0046 21.3334 12.5402 22.2943 13.5914C23.2691 14.6578 23.9853 16.4437 23.9853 19.2801H26.7308C26.7308 16.0079 25.9027 13.4697 24.3207 11.7391C22.725 9.99336 20.536 9.25913 18.2198 9.25913V12.0046ZM23.9853 19.2801V32.8703H26.7308V19.2801H23.9853ZM23.9853 32.8703C23.9853 35.7067 23.2691 37.4926 22.2943 38.559C21.3334 39.6103 19.9532 40.1458 18.2198 40.1458V42.8913C20.536 42.8913 22.725 42.1571 24.3207 40.4114C25.9027 38.6808 26.7308 36.1426 26.7308 32.8703H23.9853ZM40.5022 49H39.1295V50.3727H40.5022V49ZM68.9179 49V50.3727H70.2907V49H68.9179ZM68.9179 40.6949H70.2907V39.3222H68.9179V40.6949ZM51.1409 40.6949H49.7682V42.0677H51.1409V40.6949ZM51.1409 40.2831L50.2262 39.2596L49.7682 39.6689V40.2831H51.1409ZM62.1229 30.468L63.0377 31.4915L63.0382 31.491L62.1229 30.468ZM39.2667 15.9169L37.8974 15.8208L37.7943 17.2897H39.2667V15.9169ZM48.4641 15.9169V17.2897H49.6644L49.8246 16.1001L48.4641 15.9169ZM55.8083 24.3593L56.7494 25.3587L56.7562 25.3522L56.7629 25.3457L55.8083 24.3593ZM40.5022 38.7731L39.5611 37.7737L39.1295 38.1802V38.7731H40.5022ZM40.5022 50.3727H68.9179V47.6273H40.5022V50.3727ZM70.2907 49V40.6949H67.5452V49H70.2907ZM68.9179 39.3222H51.1409V42.0677H68.9179V39.3222ZM52.5137 40.6949V40.2831H49.7682V40.6949H52.5137ZM52.0557 41.3066L63.0377 31.4915L61.2081 29.4445L50.2262 39.2596L52.0557 41.3066ZM63.0382 31.491C67.098 27.8586 70.4966 23.3981 70.4966 16.466H67.7511C67.7511 22.3005 64.9724 26.0764 61.2075 29.445L63.0382 31.491ZM70.4966 16.466C70.4966 11.953 68.919 7.98708 66.0691 5.14669C63.2179 2.30505 59.1835 0.679497 54.4355 0.679497V3.42498C58.5417 3.42498 61.8515 4.81945 64.131 7.09128C66.4117 9.36436 67.7511 12.6053 67.7511 16.466H70.4966ZM54.4355 0.679497C49.4265 0.679497 45.4107 2.29615 42.5718 5.06817C39.7433 7.82994 38.1913 11.6324 37.8974 15.8208L40.6361 16.013C40.8913 12.3769 42.222 9.24694 44.4898 7.03253C46.7472 4.82836 50.0412 3.42498 54.4355 3.42498V0.679497ZM39.2667 17.2897H48.4641V14.5442H39.2667V17.2897ZM49.8246 16.1001C50.033 14.5516 50.5723 13.5746 51.2665 12.9745C51.9632 12.3722 52.9839 12.0046 54.4355 12.0046V9.25913C52.5239 9.25913 50.7991 9.74946 49.4711 10.8974C48.1405 12.0476 47.3756 13.7131 47.1036 15.7338L49.8246 16.1001ZM54.4355 12.0046C56.8728 12.0046 58.5537 14.0933 58.5537 16.466H61.2992C61.2992 12.9359 58.7247 9.25913 54.4355 9.25913V12.0046ZM58.5537 16.466C58.5537 19.4311 56.9474 21.3466 54.8536 23.3728L56.7629 25.3457C58.9246 23.2538 61.2992 20.6392 61.2992 16.466H58.5537ZM54.8672 23.3599L39.5611 37.7737L41.4433 39.7724L56.7494 25.3587L54.8672 23.3599ZM39.1295 38.7731V49H41.8749V38.7731H39.1295Z" fill="#E20074"/>
</svg>
