<svg width="72" height="52" viewBox="0 0 72 52" fill="none" xmlns="http://www.w3.org/2000/svg">
<path d="M17.7171 51.4709C22.5105 51.4709 26.8807 49.9112 30.0558 46.7362C33.2359 43.5561 35.0823 38.8908 35.0823 32.9389H32.3368C32.3368 38.3122 30.6827 42.2265 28.1144 44.7948C25.5411 47.3681 21.9152 48.7255 17.7171 48.7255V51.4709ZM35.0823 32.9389V19.2115H32.3368V32.9389H35.0823ZM35.0823 19.2115C35.0823 13.2597 33.2359 8.59436 30.0558 5.41428C26.8807 2.23921 22.5105 0.679497 17.7171 0.679497V3.42498C21.9152 3.42498 25.5411 4.78234 28.1144 7.35563C30.6827 9.9239 32.3368 13.8382 32.3368 19.2115H35.0823ZM17.7171 0.679497C12.9243 0.679497 8.53856 2.23876 5.34698 5.41139C2.14927 8.59013 0.283279 13.2558 0.283279 19.2115H3.02876C3.02876 13.8421 4.69758 9.92813 7.28254 7.35851C9.87364 4.7828 13.5185 3.42498 17.7171 3.42498V0.679497ZM0.283279 19.2115V32.9389H3.02876V19.2115H0.283279ZM0.283279 32.9389C0.283279 38.8946 2.14927 43.5603 5.34698 46.739C8.53856 49.9117 12.9243 51.4709 17.7171 51.4709V48.7255C13.5185 48.7255 9.87364 47.3676 7.28254 44.7919C4.69758 42.2223 3.02876 38.3083 3.02876 32.9389H0.283279ZM17.7171 40.1458C15.9432 40.1458 14.5464 39.6064 13.5794 38.5556C12.5992 37.4904 11.8829 35.7069 11.8829 32.8703H9.13746C9.13746 36.1424 9.96553 38.683 11.5592 40.4147C13.1661 42.1609 15.3728 42.8913 17.7171 42.8913V40.1458ZM11.8829 32.8703V19.2801H9.13746V32.8703H11.8829ZM11.8829 19.2801C11.8829 16.4435 12.5992 14.66 13.5794 13.5948C14.5464 12.544 15.9432 12.0046 17.7171 12.0046V9.25913C15.3728 9.25913 13.1661 9.98953 11.5592 11.7357C9.96553 13.4675 9.13746 16.0081 9.13746 19.2801H11.8829ZM17.7171 12.0046C19.4505 12.0046 20.8306 12.5402 21.7916 13.5914C22.7664 14.6578 23.4826 16.4437 23.4826 19.2801H26.2281C26.2281 16.0079 25.4 13.4697 23.818 11.7391C22.2223 9.99336 20.0333 9.25913 17.7171 9.25913V12.0046ZM23.4826 19.2801V32.8703H26.2281V19.2801H23.4826ZM23.4826 32.8703C23.4826 35.7067 22.7664 37.4926 21.7916 38.559C20.8306 39.6103 19.4505 40.1458 17.7171 40.1458V42.8913C20.0333 42.8913 22.2223 42.1571 23.818 40.4114C25.4 38.6808 26.2281 36.1426 26.2281 32.8703H23.4826ZM58.9433 21.6824H57.5706V22.7728L58.6327 23.0196L58.9433 21.6824ZM58.9433 21.4079L58.0704 20.3484L57.5706 20.7603V21.4079H58.9433ZM68.6898 13.3774L69.5627 14.4368L70.0625 14.025V13.3774H68.6898ZM68.6898 3.15043H70.0625V1.77769H68.6898V3.15043ZM39.7936 3.15043V1.77769H38.4208V3.15043H39.7936ZM39.7936 11.4555H38.4208V12.8283H39.7936V11.4555ZM58.6001 11.4555H59.9729V10.0828H58.6001V11.4555ZM58.6001 11.8673L59.4951 12.9082L59.9729 12.4974V11.8673H58.6001ZM47.8241 21.1333L46.9291 20.0925L46.4514 20.5033V21.1333H47.8241ZM47.8241 29.0952H46.4514V30.468H47.8241V29.0952ZM47.9614 36.9199L49.3221 36.7384L49.1632 35.5471H47.9614V36.9199ZM38.6267 36.9199V35.5471H37.1454L37.258 37.0242L38.6267 36.9199ZM60.3161 21.6824V21.4079H57.5706V21.6824H60.3161ZM59.8162 22.4673L69.5627 14.4368L67.8169 12.3179L58.0704 20.3484L59.8162 22.4673ZM70.0625 13.3774V3.15043H67.317V13.3774H70.0625ZM68.6898 1.77769H39.7936V4.52317H68.6898V1.77769ZM38.4208 3.15043V11.4555H41.1663V3.15043H38.4208ZM39.7936 12.8283H58.6001V10.0828H39.7936V12.8283ZM57.2274 11.4555V11.8673H59.9729V11.4555H57.2274ZM57.7051 10.8265L46.9291 20.0925L48.7191 22.1742L59.4951 12.9082L57.7051 10.8265ZM46.4514 21.1333V29.0952H49.1968V21.1333H46.4514ZM47.8241 30.468H53.2464V27.7225H47.8241V30.468ZM53.2464 30.468C55.5334 30.468 56.9985 31.0469 57.8787 31.8397C58.7406 32.616 59.2179 33.7557 59.2179 35.2726H61.9633C61.9633 33.1517 61.2738 31.2027 59.7162 29.7998C58.1769 28.4134 55.97 27.7225 53.2464 27.7225V30.468ZM59.2179 35.2726C59.2179 36.7529 58.6936 37.9481 57.8417 38.7744C56.9879 39.6025 55.7153 40.1458 54.0701 40.1458V42.8913C56.3372 42.8913 58.3248 42.1305 59.7532 40.7451C61.1835 39.3579 61.9633 37.4301 61.9633 35.2726H59.2179ZM54.0701 40.1458C52.775 40.1458 51.6412 39.8204 50.8213 39.2504C50.0301 38.7003 49.4755 37.889 49.3221 36.7384L46.6007 37.1013C46.8591 39.0394 47.8488 40.5275 49.254 41.5045C50.6305 42.4617 52.3451 42.8913 54.0701 42.8913V40.1458ZM47.9614 35.5471H38.6267V38.2926H47.9614V35.5471ZM37.258 37.0242C37.5543 40.9138 39.0637 44.5492 41.9097 47.2137C44.7633 49.8853 48.8426 51.4709 54.0701 51.4709V48.7255C49.4138 48.7255 46.046 47.3254 43.7861 45.2095C41.5187 43.0866 40.2483 40.1328 39.9955 36.8156L37.258 37.0242ZM54.0701 51.4709C59.0184 51.4709 63.3201 49.9396 66.3982 47.0801C69.4871 44.2104 71.2293 40.1076 71.2293 35.2039H68.4839C68.4839 39.429 67.0002 42.7733 64.5295 45.0686C62.048 47.374 58.4564 48.7255 54.0701 48.7255V51.4709ZM71.2293 35.2039C71.2293 31.266 70.1201 27.9548 68.0046 25.4047C65.8949 22.8614 62.8778 21.1872 59.254 20.3453L58.6327 23.0196C61.8039 23.7563 64.2434 25.1708 65.8916 27.1576C67.534 29.1375 68.4839 31.7977 68.4839 35.2039H71.2293Z" fill="#E20074"/>
</svg>
