<svg width="380" height="361" viewBox="0 0 380 361" fill="none" xmlns="http://www.w3.org/2000/svg">
<mask id="mask0" mask-type="alpha" maskUnits="userSpaceOnUse" x="0" y="0" width="350" height="360">
<rect width="350" height="360" rx="5" fill="#C4C4C4"/>
</mask>
<g mask="url(#mask0)">
<rect x="-43.2852" y="-36" width="488.311" height="401.143"/>
</g>
<mask id="mask1" mask-type="alpha" maskUnits="userSpaceOnUse" x="0" y="50" width="350" height="310">
<rect y="50.5713" width="350" height="309.429" rx="5" fill="#C4C4C4"/>
</mask>
<g mask="url(#mask1)">
<path fill-rule="evenodd" clip-rule="evenodd" d="M-146.882 193.862C-161.57 193.386 -173.818 204.909 -174.239 219.598C-174.66 234.287 -163.095 246.581 -148.407 247.056L-99.3356 248.645C-101.048 252.295 -101.914 256.403 -101.69 260.699C-101.39 266.454 -99.1837 271.643 -95.7147 275.691C-96.166 277.509 -96.4203 279.407 -96.4531 281.36C-96.6453 292.8 -89.1864 302.604 -78.7963 305.881C-88.481 310.255 -94.7977 320.462 -93.7319 331.576C-93.0844 338.327 -89.8323 344.167 -85.0665 348.205C-80.3868 356.004 -71.8404 361.22 -62.1004 361.2L391.333 360.27C406.029 360.24 417.876 348.303 417.796 333.608C417.715 318.913 405.737 307.024 391.042 307.055L306.169 307.229C310.91 302.073 313.533 295.007 312.816 287.532C312.41 283.293 310.976 279.413 308.785 276.112C304.506 268.68 296.547 263.609 287.358 263.434L282.442 263.341L308.315 261.818C322.21 261.001 332.888 249.069 332.164 235.169C332.163 235.163 332.163 235.156 332.163 235.15C332.127 220.837 320.725 209.003 306.32 208.536L-146.882 193.862Z" fill="#E20074"/>
</g>
<mask id="mask2" mask-type="alpha" maskUnits="userSpaceOnUse" x="0" y="51" width="350" height="310">
<rect y="51" width="350" height="309.429" rx="5" fill="#C4C4C4"/>
</mask>
<g mask="url(#mask2)">
<path fill-rule="evenodd" clip-rule="evenodd" d="M-146.882 194.29C-161.57 193.814 -173.818 205.336 -174.239 220.026C-174.66 234.715 -163.095 247.008 -148.407 247.484L-2.90714 252.195L-45.0635 257.552L-70.8273 257.063C-81.1141 256.868 -90.065 262.863 -94.1303 271.624C-97.8898 276.665 -99.7985 283.097 -98.9913 289.81C-97.8977 298.905 -92.0927 306.25 -84.3155 309.71C-90.7694 314.925 -94.5782 323.178 -93.7319 332.004C-93.0844 338.755 -89.8323 344.594 -85.0665 348.633C-80.3868 356.432 -71.8404 361.648 -62.1004 361.628L391.333 360.698C406.029 360.668 417.876 348.731 417.796 334.036C417.715 319.341 405.737 307.452 391.042 307.482L306.169 307.656C310.91 302.5 313.533 295.435 312.816 287.96C312.41 283.72 310.976 279.84 308.785 276.54C305.733 271.239 300.809 267.139 294.902 265.16L310.152 263.222C323.926 261.472 333.759 248.905 332.158 235.125C331.886 221.016 320.573 209.425 306.32 208.964L-146.882 194.29Z" fill="#E20074"/>
</g>
</svg>
