<svg width="1440" height="122" viewBox="0 0 1440 122" fill="none" xmlns="http://www.w3.org/2000/svg">
<path d="M888.492 53.308V54.1832H889.232L889.355 53.4533L888.492 53.308ZM890.723 40.0491L891.586 40.1944L891.758 39.174H890.723V40.0491ZM876.283 40.0491L875.421 39.8964L875.239 40.9243H876.283V40.0491ZM879.959 19.3075L880.82 19.4602L881.003 18.4323H879.959V19.3075ZM865.256 19.3075V18.4323H864.522L864.394 19.1548L865.256 19.3075ZM861.58 40.0491V40.9243H862.314L862.442 40.2018L861.58 40.0491ZM845.958 40.0491L845.096 39.8964L844.914 40.9243H845.958V40.0491ZM849.634 19.3075L850.496 19.4602L850.678 18.4323H849.634V19.3075ZM834.8 19.3075V18.4323H834.066L833.938 19.1548L834.8 19.3075ZM831.124 40.0491V40.9243H831.858L831.986 40.2018L831.124 40.0491ZM816.815 40.0491V39.174H816.082L815.953 39.8956L816.815 40.0491ZM814.452 53.308L813.59 53.1545L813.407 54.1832H814.452V53.308ZM828.892 53.308L829.754 53.4631L829.939 52.4329H828.892V53.308ZM825.348 72.9995V73.8746H826.08L826.209 73.1545L825.348 72.9995ZM811.039 72.9995V72.1243H810.306L810.177 72.8459L811.039 72.9995ZM808.676 86.2584L807.814 86.1048L807.631 87.1335H808.676V86.2584ZM823.116 86.2584L823.978 86.4111L824.16 85.3832H823.116V86.2584ZM819.44 107L818.579 106.847L818.396 107.875H819.44V107ZM834.143 107V107.875H834.877L835.005 107.153L834.143 107ZM837.819 86.2584V85.3832H837.085L836.957 86.1056L837.819 86.2584ZM853.441 86.2584L854.303 86.4111L854.485 85.3832H853.441V86.2584ZM849.765 107L848.903 106.847L848.721 107.875H849.765V107ZM864.468 107V107.875H865.202L865.33 107.153L864.468 107ZM868.144 86.2584V85.3832H867.41L867.282 86.1056L868.144 86.2584ZM882.584 86.2584V87.1335H883.317L883.446 86.4119L882.584 86.2584ZM884.947 72.9995L885.809 73.153L885.992 72.1243H884.947V72.9995ZM870.507 72.9995L869.645 72.85L869.467 73.8746H870.507V72.9995ZM873.92 53.308V52.4329H873.183L873.058 53.1586L873.92 53.308ZM855.804 72.9995V73.8746H856.54L856.666 73.1489L855.804 72.9995ZM840.182 72.9995L839.32 72.85L839.142 73.8746H840.182V72.9995ZM843.595 53.308V52.4329H842.859L842.733 53.1586L843.595 53.308ZM859.217 53.308L860.079 53.4575L860.257 52.4329H859.217V53.308ZM889.355 53.4533L891.586 40.1944L889.86 39.9039L887.629 53.1628L889.355 53.4533ZM890.723 39.174H876.283V40.9243H890.723V39.174ZM877.145 40.2018L880.82 19.4602L879.097 19.1548L875.421 39.8964L877.145 40.2018ZM879.959 18.4323H865.256V20.1827H879.959V18.4323ZM864.394 19.1548L860.718 39.8964L862.442 40.2018L866.118 19.4602L864.394 19.1548ZM861.58 39.174H845.958V40.9243H861.58V39.174ZM846.82 40.2018L850.496 19.4602L848.772 19.1548L845.096 39.8964L846.82 40.2018ZM849.634 18.4323H834.8V20.1827H849.634V18.4323ZM833.938 19.1548L830.262 39.8964L831.986 40.2018L835.661 19.4602L833.938 19.1548ZM831.124 39.174H816.815V40.9243H831.124V39.174ZM815.953 39.8956L813.59 53.1545L815.313 53.4616L817.676 40.2027L815.953 39.8956ZM814.452 54.1832H828.892V52.4329H814.452V54.1832ZM828.031 53.153L824.486 72.8444L826.209 73.1545L829.754 53.4631L828.031 53.153ZM825.348 72.1243H811.039V73.8746H825.348V72.1243ZM810.177 72.8459L807.814 86.1048L809.537 86.4119L811.9 73.153L810.177 72.8459ZM808.676 87.1335H823.116V85.3832H808.676V87.1335ZM822.254 86.1056L818.579 106.847L820.302 107.153L823.978 86.4111L822.254 86.1056ZM819.44 107.875H834.143V106.125H819.44V107.875ZM835.005 107.153L838.681 86.4111L836.957 86.1056L833.282 106.847L835.005 107.153ZM837.819 87.1335H853.441V85.3832H837.819V87.1335ZM852.579 86.1056L848.903 106.847L850.627 107.153L854.303 86.4111L852.579 86.1056ZM849.765 107.875H864.468V106.125H849.765V107.875ZM865.33 107.153L869.006 86.4111L867.282 86.1056L863.606 106.847L865.33 107.153ZM868.144 87.1335H882.584V85.3832H868.144V87.1335ZM883.446 86.4119L885.809 73.153L884.086 72.8459L881.723 86.1048L883.446 86.4119ZM884.947 72.1243H870.507V73.8746H884.947V72.1243ZM871.369 73.1489L874.782 53.4575L873.058 53.1586L869.645 72.85L871.369 73.1489ZM873.92 54.1832H888.492V52.4329H873.92V54.1832ZM855.804 72.1243H840.182V73.8746H855.804V72.1243ZM841.044 73.1489L844.458 53.4575L842.733 53.1586L839.32 72.85L841.044 73.1489ZM843.595 54.1832H859.217V52.4329H843.595V54.1832ZM858.355 53.1586L854.942 72.85L856.666 73.1489L860.079 53.4575L858.355 53.1586ZM905.379 107H904.504V107.875H905.379V107ZM923.101 107V107.875H923.977V107H923.101ZM923.101 19.3075H923.977V18.4323H923.101V19.3075ZM905.379 19.3075V18.4323H904.504V19.3075H905.379ZM905.379 107.875H923.101V106.125H905.379V107.875ZM923.977 107V19.3075H922.226V107H923.977ZM923.101 18.4323H905.379V20.1827H923.101V18.4323ZM904.504 19.3075V107H906.254V19.3075H904.504ZM1031.37 19.3075V18.4323H1030.68L1030.52 19.107L1031.37 19.3075ZM1017.19 79.5633V80.4384H1017.89L1018.04 79.7637L1017.19 79.5633ZM1016.4 79.5633L1015.55 79.7637L1015.71 80.4384H1016.4V79.5633ZM1002.23 19.3075L1003.08 19.107L1002.92 18.4323H1002.23V19.3075ZM982.404 19.3075V18.4323H981.711L981.552 19.107L982.404 19.3075ZM968.227 79.5633V80.4384H968.92L969.078 79.7637L968.227 79.5633ZM967.439 79.5633L966.587 79.7655L966.747 80.4384H967.439V79.5633ZM953.13 19.3075L953.981 19.1053L953.822 18.4323H953.13V19.3075ZM934.882 19.3075V18.4323H933.743L934.037 19.5328L934.882 19.3075ZM958.25 107L957.404 107.225L957.577 107.875H958.25V107ZM977.285 107V107.875H977.971L978.135 107.209L977.285 107ZM991.856 47.6632V46.788H991.17L991.006 47.4544L991.856 47.6632ZM992.644 47.6632L993.494 47.4544L993.33 46.788H992.644V47.6632ZM1007.22 107L1006.37 107.209L1006.53 107.875H1007.22V107ZM1026.38 107V107.875H1027.06L1027.23 107.224L1026.38 107ZM1049.62 19.3075L1050.46 19.5317L1050.76 18.4323H1049.62V19.3075ZM1030.52 19.107L1016.34 79.3628L1018.04 79.7637L1032.22 19.5079L1030.52 19.107ZM1017.19 78.6881H1016.4V80.4384H1017.19V78.6881ZM1017.26 79.3628L1003.08 19.107L1001.38 19.5079L1015.55 79.7637L1017.26 79.3628ZM1002.23 18.4323H982.404V20.1827H1002.23V18.4323ZM981.552 19.107L967.375 79.3628L969.078 79.7637L983.256 19.5079L981.552 19.107ZM968.227 78.6881H967.439V80.4384H968.227V78.6881ZM968.29 79.3611L953.981 19.1053L952.278 19.5097L966.587 79.7655L968.29 79.3611ZM953.13 18.4323H934.882V20.1827H953.13V18.4323ZM934.037 19.5328L957.404 107.225L959.095 106.775L935.728 19.0822L934.037 19.5328ZM958.25 107.875H977.285V106.125H958.25V107.875ZM978.135 107.209L992.706 47.8719L991.006 47.4544L976.435 106.791L978.135 107.209ZM991.856 48.5383H992.644V46.788H991.856V48.5383ZM991.794 47.8719L1006.37 107.209L1008.07 106.791L993.494 47.4544L991.794 47.8719ZM1007.22 107.875H1026.38V106.125H1007.22V107.875ZM1027.23 107.224L1050.46 19.5317L1048.77 19.0833L1025.54 106.776L1027.23 107.224ZM1049.62 18.4323H1031.37V20.1827H1049.62V18.4323ZM1061.39 107H1060.52V107.875H1061.39V107ZM1079.11 107V107.875H1079.99V107H1079.11ZM1079.11 19.3075H1079.99V18.4323H1079.11V19.3075ZM1061.39 19.3075V18.4323H1060.52V19.3075H1061.39ZM1061.39 107.875H1079.11V106.125H1061.39V107.875ZM1079.99 107V19.3075H1078.24V107H1079.99ZM1079.11 18.4323H1061.39V20.1827H1079.11V18.4323ZM1060.52 19.3075V107H1062.27V19.3075H1060.52ZM1098.25 107H1097.37V107.875H1098.25V107ZM1147.34 107V107.875H1148.22V107H1147.34ZM1147.34 90.5905H1148.22V89.7153H1147.34V90.5905ZM1115.97 90.5905H1115.09V91.4657H1115.97V90.5905ZM1115.97 19.3075H1116.84V18.4323H1115.97V19.3075ZM1098.25 19.3075V18.4323H1097.37V19.3075H1098.25ZM1098.25 107.875H1147.34V106.125H1098.25V107.875ZM1148.22 107V90.5905H1146.47V107H1148.22ZM1147.34 89.7153H1115.97V91.4657H1147.34V89.7153ZM1116.84 90.5905V19.3075H1115.09V90.5905H1116.84ZM1115.97 18.4323H1098.25V20.1827H1115.97V18.4323ZM1097.37 19.3075V107H1099.12V19.3075H1097.37ZM1160.1 107H1159.23V107.875H1160.1V107ZM1209.2 107V107.875H1210.07V107H1209.2ZM1209.2 90.5905H1210.07V89.7153H1209.2V90.5905ZM1177.82 90.5905H1176.95V91.4657H1177.82V90.5905ZM1177.82 19.3075H1178.7V18.4323H1177.82V19.3075ZM1160.1 19.3075V18.4323H1159.23V19.3075H1160.1ZM1160.1 107.875H1209.2V106.125H1160.1V107.875ZM1210.07 107V90.5905H1208.32V107H1210.07ZM1209.2 89.7153H1177.82V91.4657H1209.2V89.7153ZM1178.7 90.5905V19.3075H1176.95V90.5905H1178.7ZM1177.82 18.4323H1160.1V20.1827H1177.82V18.4323ZM1159.23 19.3075V107H1160.98V19.3075H1159.23ZM1272.23 19.3075V18.4323H1271.36V19.3075H1272.23ZM1272.23 74.4435V75.3187H1273.11V74.4435H1272.23ZM1271.45 74.4435L1270.69 74.8777L1270.94 75.3187H1271.45V74.4435ZM1239.94 19.3075L1240.7 18.8733L1240.45 18.4323H1239.94V19.3075ZM1221.95 19.3075V18.4323H1221.08V19.3075H1221.95ZM1221.95 107H1221.08V107.875H1221.95V107ZM1239.68 107V107.875H1240.55V107H1239.68ZM1239.68 52.1265V51.2514H1238.8V52.1265H1239.68ZM1240.46 52.1265L1241.22 51.6921L1240.97 51.2514H1240.46V52.1265ZM1271.84 107L1271.08 107.434L1271.33 107.875H1271.84V107ZM1289.82 107V107.875H1290.7V107H1289.82ZM1289.82 19.3075H1290.7V18.4323H1289.82V19.3075ZM1271.36 19.3075V74.4435H1273.11V19.3075H1271.36ZM1272.23 73.5683H1271.45V75.3187H1272.23V73.5683ZM1272.21 74.0093L1240.7 18.8733L1239.18 19.7417L1270.69 74.8777L1272.21 74.0093ZM1239.94 18.4323H1221.95V20.1827H1239.94V18.4323ZM1221.08 19.3075V107H1222.83V19.3075H1221.08ZM1221.95 107.875H1239.68V106.125H1221.95V107.875ZM1240.55 107V52.1265H1238.8V107H1240.55ZM1239.68 53.0017H1240.46V51.2514H1239.68V53.0017ZM1239.7 52.561L1271.08 107.434L1272.6 106.566L1241.22 51.6921L1239.7 52.561ZM1271.84 107.875H1289.82V106.125H1271.84V107.875ZM1290.7 107V19.3075H1288.95V107H1290.7ZM1289.82 18.4323H1272.23V20.1827H1289.82V18.4323ZM1342.54 109.976C1354.79 109.976 1364.34 105.48 1370.81 97.3035C1377.26 89.156 1380.57 77.4524 1380.57 63.1537H1378.82C1378.82 77.2108 1375.56 88.4805 1369.44 96.2174C1363.34 103.925 1354.32 108.225 1342.54 108.225V109.976ZM1380.57 63.1537C1380.57 48.8551 1377.26 37.1515 1370.81 29.004C1364.34 20.8277 1354.79 16.3319 1342.54 16.3319V18.0823C1354.32 18.0823 1363.34 22.382 1369.44 30.0901C1375.56 37.827 1378.82 49.0967 1378.82 63.1537H1380.57ZM1342.54 16.3319C1330.3 16.3319 1320.74 20.8277 1314.27 29.004C1307.82 37.1515 1304.52 48.8551 1304.52 63.1537H1306.27C1306.27 49.0967 1309.52 37.827 1315.64 30.0901C1321.74 22.382 1330.77 18.0823 1342.54 18.0823V16.3319ZM1304.52 63.1537C1304.52 77.4524 1307.82 89.156 1314.27 97.3035C1320.74 105.48 1330.3 109.976 1342.54 109.976V108.225C1330.77 108.225 1321.74 103.925 1315.64 96.2174C1309.52 88.4805 1306.27 77.2108 1306.27 63.1537H1304.52ZM1342.54 91.1593C1336.71 91.1593 1332.3 88.8614 1329.31 84.3012C1326.28 79.6828 1324.64 72.6622 1324.64 63.1537H1322.89C1322.89 72.8116 1324.54 80.2314 1327.85 85.2618C1331.19 90.3504 1336.16 92.9097 1342.54 92.9097V91.1593ZM1324.64 63.1537C1324.64 53.6453 1326.28 46.6247 1329.31 42.0063C1332.3 37.4461 1336.71 35.1482 1342.54 35.1482V33.3978C1336.16 33.3978 1331.19 35.9571 1327.85 41.0457C1324.54 46.0761 1322.89 53.4959 1322.89 63.1537H1324.64ZM1342.54 35.1482C1348.37 35.1482 1352.78 37.4461 1355.78 42.0063C1358.81 46.6247 1360.44 53.6453 1360.44 63.1537H1362.19C1362.19 53.4959 1360.54 46.0761 1357.24 41.0457C1353.9 35.9571 1348.92 33.3978 1342.54 33.3978V35.1482ZM1360.44 63.1537C1360.44 72.6622 1358.81 79.6828 1355.78 84.3012C1352.78 88.8614 1348.37 91.1593 1342.54 91.1593V92.9097C1348.92 92.9097 1353.9 90.3504 1357.24 85.2618C1360.54 80.2314 1362.19 72.8116 1362.19 63.1537H1360.44ZM1386.54 35.717H1385.66V36.5922H1386.54V35.717ZM1408.99 35.717H1409.86V34.8418H1408.99V35.717ZM1408.99 107H1408.11V107.875H1408.99V107ZM1426.71 107V107.875H1427.58V107H1426.71ZM1426.71 35.717V34.8418H1425.83V35.717H1426.71ZM1449.16 35.717V36.5922H1450.03V35.717H1449.16ZM1449.16 19.3075H1450.03V18.4323H1449.16V19.3075ZM1386.54 19.3075V18.4323H1385.66V19.3075H1386.54ZM1386.54 36.5922H1408.99V34.8418H1386.54V36.5922ZM1408.11 35.717V107H1409.86V35.717H1408.11ZM1408.99 107.875H1426.71V106.125H1408.99V107.875ZM1427.58 107V35.717H1425.83V107H1427.58ZM1426.71 36.5922H1449.16V34.8418H1426.71V36.5922ZM1450.03 35.717V19.3075H1448.28V35.717H1450.03ZM1449.16 18.4323H1386.54V20.1827H1449.16V18.4323ZM1385.66 19.3075V35.717H1387.41V19.3075H1385.66ZM1495.37 55.671L1495.14 56.5154L1495.15 56.518L1495.37 55.671ZM1485.26 52.9142L1485.49 52.0699L1485.49 52.0693L1485.26 52.9142ZM1498.65 43.7249L1497.79 43.8799L1497.92 44.6H1498.65V43.7249ZM1515.98 43.7249V44.6H1516.95L1516.85 43.6329L1515.98 43.7249ZM1477.78 69.3237L1478.02 68.4822L1478.01 68.4796L1477.78 69.3237ZM1487.89 72.2118L1487.65 73.0534L1487.66 73.0569L1487.89 72.2118ZM1474.1 82.1888L1474.96 82.0054L1474.81 81.3136H1474.1V82.1888ZM1456.51 82.1888V81.3136H1455.55L1455.64 82.268L1456.51 82.1888ZM1487.1 109.976C1495.48 109.976 1503.05 107.428 1508.54 102.568C1514.04 97.6967 1517.38 90.5593 1517.38 81.5324H1515.63C1515.63 90.0965 1512.47 96.7431 1507.38 101.258C1502.26 105.784 1495.13 108.225 1487.1 108.225V109.976ZM1517.38 81.5324C1517.38 68.3594 1509.06 58.3268 1495.59 54.824L1495.15 56.518C1507.93 59.8415 1515.63 69.2379 1515.63 81.5324H1517.38ZM1495.6 54.8267L1485.49 52.0699L1485.03 53.7585L1495.14 56.5153L1495.6 54.8267ZM1485.49 52.0693C1483.1 51.4238 1481.03 50.5814 1479.56 49.2604C1478.13 47.9761 1477.21 46.1834 1477.21 43.4623H1475.46C1475.46 46.6487 1476.57 48.9255 1478.39 50.5621C1480.17 52.162 1482.56 53.0919 1485.03 53.7591L1485.49 52.0693ZM1477.21 43.4623C1477.21 40.7526 1478.26 38.6008 1479.96 37.1155C1481.68 35.6198 1484.12 34.7543 1486.97 34.7543V33.004C1483.77 33.004 1480.9 33.9763 1478.81 35.7954C1476.71 37.6249 1475.46 40.2646 1475.46 43.4623H1477.21ZM1486.97 34.7543C1490.24 34.7543 1492.64 35.5401 1494.36 37.0059C1496.08 38.4742 1497.22 40.7234 1497.79 43.8799L1499.51 43.5698C1498.9 40.1626 1497.62 37.4889 1495.49 35.6753C1493.37 33.8592 1490.52 33.004 1486.97 33.004V34.7543ZM1498.65 44.6H1515.98V42.8497H1498.65V44.6ZM1516.85 43.6329C1515.98 35.4126 1513.1 28.5687 1508.08 23.7782C1503.06 18.9806 1496 16.3319 1486.97 16.3319V18.0823C1495.65 18.0823 1502.25 20.619 1506.87 25.0435C1511.51 29.4751 1514.27 35.8902 1515.11 43.8169L1516.85 43.6329ZM1486.97 16.3319C1478.64 16.3319 1471.23 19.0883 1465.89 24.0315C1460.55 28.9811 1457.34 36.0774 1457.34 44.6438H1459.09C1459.09 36.5382 1462.12 29.9161 1467.08 25.3153C1472.05 20.7082 1479.02 18.0823 1486.97 18.0823V16.3319ZM1457.34 44.6438C1457.34 50.178 1458.79 55.5841 1462.07 60.1064C1465.35 64.6349 1470.42 68.2182 1477.55 70.1679L1478.01 68.4796C1471.22 66.6223 1466.51 63.2479 1463.49 59.0794C1460.46 54.9046 1459.09 49.8743 1459.09 44.6438H1457.34ZM1477.54 70.1652L1487.65 73.0533L1488.13 71.3703L1478.02 68.4822L1477.54 70.1652ZM1487.66 73.0569C1491.03 73.9636 1493.49 75.0666 1495.1 76.5625C1496.68 78.0189 1497.51 79.909 1497.51 82.5826H1499.26C1499.26 79.4801 1498.26 77.1037 1496.29 75.2782C1494.36 73.4922 1491.57 72.2978 1488.11 71.3667L1487.66 73.0569ZM1497.51 82.5826C1497.51 85.203 1496.63 87.4173 1494.95 88.9816C1493.27 90.5504 1490.68 91.5532 1487.1 91.5532V93.3035C1491 93.3035 1494.06 92.2058 1496.15 90.263C1498.24 88.3157 1499.26 85.6071 1499.26 82.5826H1497.51ZM1487.1 91.5532C1483.94 91.5532 1481.29 90.8579 1479.25 89.3603C1477.22 87.8711 1475.71 85.517 1474.96 82.0054L1473.25 82.3722C1474.07 86.212 1475.77 88.9778 1478.21 90.7705C1480.64 92.5547 1483.69 93.3035 1487.1 93.3035V91.5532ZM1474.1 81.3136H1456.51V83.064H1474.1V81.3136ZM1455.64 82.268C1456.44 91.0987 1459.6 98.0557 1464.97 102.799C1470.34 107.539 1477.82 109.976 1487.1 109.976V108.225C1478.13 108.225 1471.1 105.871 1466.13 101.487C1461.17 97.1062 1458.16 90.6073 1457.38 82.1096L1455.64 82.268ZM1523.71 35.717H1522.83V36.5922H1523.71V35.717ZM1546.15 35.717H1547.03V34.8418H1546.15V35.717ZM1546.15 107H1545.28V107.875H1546.15V107ZM1563.88 107V107.875H1564.75V107H1563.88ZM1563.88 35.717V34.8418H1563V35.717H1563.88ZM1586.33 35.717V36.5922H1587.2V35.717H1586.33ZM1586.33 19.3075H1587.2V18.4323H1586.33V19.3075ZM1523.71 19.3075V18.4323H1522.83V19.3075H1523.71ZM1523.71 36.5922H1546.15V34.8418H1523.71V36.5922ZM1545.28 35.717V107H1547.03V35.717H1545.28ZM1546.15 107.875H1563.88V106.125H1546.15V107.875ZM1564.75 107V35.717H1563V107H1564.75ZM1563.88 36.5922H1586.33V34.8418H1563.88V36.5922ZM1587.2 35.717V19.3075H1585.45V35.717H1587.2ZM1586.33 18.4323H1523.71V20.1827H1586.33V18.4323ZM1522.83 19.3075V35.717H1524.58V19.3075H1522.83ZM1630.34 109.976C1642.59 109.976 1652.14 105.48 1658.61 97.3035C1665.06 89.156 1668.37 77.4524 1668.37 63.1537H1666.62C1666.62 77.2108 1663.36 88.4805 1657.24 96.2174C1651.14 103.925 1642.12 108.225 1630.34 108.225V109.976ZM1668.37 63.1537C1668.37 48.8551 1665.06 37.1515 1658.61 29.004C1652.14 20.8277 1642.59 16.3319 1630.34 16.3319V18.0823C1642.12 18.0823 1651.14 22.382 1657.24 30.0901C1663.36 37.827 1666.62 49.0967 1666.62 63.1537H1668.37ZM1630.34 16.3319C1618.09 16.3319 1608.54 20.8277 1602.07 29.004C1595.62 37.1515 1592.31 48.8551 1592.31 63.1537H1594.06C1594.06 49.0967 1597.32 37.827 1603.44 30.0901C1609.54 22.382 1618.56 18.0823 1630.34 18.0823V16.3319ZM1592.31 63.1537C1592.31 77.4524 1595.62 89.156 1602.07 97.3035C1608.54 105.48 1618.09 109.976 1630.34 109.976V108.225C1618.56 108.225 1609.54 103.925 1603.44 96.2174C1597.32 88.4805 1594.06 77.2108 1594.06 63.1537H1592.31ZM1630.34 91.1593C1624.51 91.1593 1620.1 88.8614 1617.11 84.3012C1614.07 79.6828 1612.44 72.6622 1612.44 63.1537H1610.69C1610.69 72.8116 1612.34 80.2314 1615.64 85.2618C1618.98 90.3504 1623.96 92.9097 1630.34 92.9097V91.1593ZM1612.44 63.1537C1612.44 53.6453 1614.07 46.6247 1617.11 42.0063C1620.1 37.4461 1624.51 35.1482 1630.34 35.1482V33.3978C1623.96 33.3978 1618.98 35.9571 1615.64 41.0457C1612.34 46.0761 1610.69 53.4959 1610.69 63.1537H1612.44ZM1630.34 35.1482C1636.17 35.1482 1640.58 37.4461 1643.57 42.0063C1646.6 46.6247 1648.24 53.6453 1648.24 63.1537H1649.99C1649.99 53.4959 1648.34 46.0761 1645.04 41.0457C1641.7 35.9571 1636.72 33.3978 1630.34 33.3978V35.1482ZM1648.24 63.1537C1648.24 72.6622 1646.6 79.6828 1643.57 84.3012C1640.58 88.8614 1636.17 91.1593 1630.34 91.1593V92.9097C1636.72 92.9097 1641.7 90.3504 1645.04 85.2618C1648.34 80.2314 1649.99 72.8116 1649.99 63.1537H1648.24ZM1683.07 19.3075V18.4323H1682.2V19.3075H1683.07ZM1683.07 107H1682.2V107.875H1683.07V107ZM1700.79 107V107.875H1701.67V107H1700.79ZM1700.79 77.4629V76.5877H1699.92V77.4629H1700.79ZM1700.79 61.0533H1699.92V61.9285H1700.79V61.0533ZM1700.79 35.717V34.8418H1699.92V35.717H1700.79ZM1715.76 18.4323H1683.07V20.1827H1715.76V18.4323ZM1682.2 19.3075V107H1683.95V19.3075H1682.2ZM1683.07 107.875H1700.79V106.125H1683.07V107.875ZM1701.67 107V77.4629H1699.92V107H1701.67ZM1700.79 78.338H1715.76V76.5877H1700.79V78.338ZM1715.76 78.338C1724.41 78.338 1731.86 75.654 1737.16 70.5269C1742.46 65.3952 1745.52 57.9 1745.52 48.4508H1743.77C1743.77 57.5115 1740.85 64.5224 1735.94 69.2692C1731.03 74.0207 1724.05 76.5877 1715.76 76.5877V78.338ZM1745.52 48.4508C1745.52 38.9377 1742.46 31.4097 1737.16 26.2608C1731.86 21.1164 1724.41 18.4323 1715.76 18.4323V20.1827C1724.05 20.1827 1731.03 22.7496 1735.94 27.5166C1740.85 32.2791 1743.77 39.3227 1743.77 48.4508H1745.52ZM1714.45 60.1782H1700.79V61.9285H1714.45V60.1782ZM1701.67 61.0533V35.717H1699.92V61.0533H1701.67ZM1700.79 36.5922H1714.45V34.8418H1700.79V36.5922ZM1714.45 36.5922C1717.6 36.5922 1720.31 37.639 1722.24 39.5966C1724.17 41.5526 1725.39 44.4997 1725.39 48.4508H1727.14C1727.14 44.1315 1725.8 40.7117 1723.49 38.3685C1721.18 36.0267 1717.99 34.8418 1714.45 34.8418V36.5922ZM1725.39 48.4508C1725.39 52.3326 1724.17 55.2467 1722.24 57.1878C1720.32 59.1311 1717.6 60.1782 1714.45 60.1782V61.9285C1717.99 61.9285 1721.18 60.7439 1723.49 58.4207C1725.79 56.0953 1727.14 52.7082 1727.14 48.4508H1725.39Z" fill="#333333"/>
<path d="M-70.5083 53.308V54.1832H-69.7682L-69.6453 53.4533L-70.5083 53.308ZM-68.2766 40.0491L-67.4136 40.1944L-67.2418 39.174H-68.2766V40.0491ZM-82.717 40.0491L-83.5788 39.8964L-83.7609 40.9243H-82.717V40.0491ZM-79.0413 19.3075L-78.1795 19.4602L-77.9974 18.4323H-79.0413V19.3075ZM-93.7442 19.3075V18.4323H-94.4779L-94.606 19.1548L-93.7442 19.3075ZM-97.42 40.0491V40.9243H-96.6862L-96.5582 40.2018L-97.42 40.0491ZM-113.042 40.0491L-113.904 39.8964L-114.086 40.9243H-113.042V40.0491ZM-109.366 19.3075L-108.504 19.4602L-108.322 18.4323H-109.366V19.3075ZM-124.2 19.3075V18.4323H-124.934L-125.062 19.1548L-124.2 19.3075ZM-127.876 40.0491V40.9243H-127.142L-127.014 40.2018L-127.876 40.0491ZM-142.185 40.0491V39.174H-142.918L-143.047 39.8956L-142.185 40.0491ZM-144.548 53.308L-145.41 53.1545L-145.593 54.1832H-144.548V53.308ZM-130.108 53.308L-129.246 53.4631L-129.061 52.4329H-130.108V53.308ZM-133.652 72.9995V73.8746H-132.92L-132.791 73.1545L-133.652 72.9995ZM-147.961 72.9995V72.1243H-148.694L-148.823 72.8459L-147.961 72.9995ZM-150.324 86.2584L-151.186 86.1048L-151.369 87.1335H-150.324V86.2584ZM-135.884 86.2584L-135.022 86.4111L-134.84 85.3832H-135.884V86.2584ZM-139.56 107L-140.421 106.847L-140.604 107.875H-139.56V107ZM-124.857 107V107.875H-124.123L-123.995 107.153L-124.857 107ZM-121.181 86.2584V85.3832H-121.915L-122.043 86.1056L-121.181 86.2584ZM-105.559 86.2584L-104.697 86.4111L-104.515 85.3832H-105.559V86.2584ZM-109.235 107L-110.097 106.847L-110.279 107.875H-109.235V107ZM-94.5319 107V107.875H-93.7982L-93.6701 107.153L-94.5319 107ZM-90.8561 86.2584V85.3832H-91.5899L-91.7179 86.1056L-90.8561 86.2584ZM-76.4158 86.2584V87.1335H-75.6828L-75.5542 86.4119L-76.4158 86.2584ZM-74.0528 72.9995L-73.1912 73.153L-73.0079 72.1243H-74.0528V72.9995ZM-88.4932 72.9995L-89.3555 72.85L-89.5331 73.8746H-88.4932V72.9995ZM-85.08 53.308V52.4329H-85.8165L-85.9423 53.1586L-85.08 53.308ZM-103.196 72.9995V73.8746H-102.46L-102.334 73.1489L-103.196 72.9995ZM-118.818 72.9995L-119.68 72.85L-119.858 73.8746H-118.818V72.9995ZM-115.405 53.308V52.4329H-116.141L-116.267 53.1586L-115.405 53.308ZM-99.7829 53.308L-98.9206 53.4575L-98.743 52.4329H-99.7829V53.308ZM-69.6453 53.4533L-67.4136 40.1944L-69.1397 39.9039L-71.3714 53.1628L-69.6453 53.4533ZM-68.2766 39.174H-82.717V40.9243H-68.2766V39.174ZM-81.8553 40.2018L-78.1795 19.4602L-79.903 19.1548L-83.5788 39.8964L-81.8553 40.2018ZM-79.0413 18.4323H-93.7442V20.1827H-79.0413V18.4323ZM-94.606 19.1548L-98.2817 39.8964L-96.5582 40.2018L-92.8825 19.4602L-94.606 19.1548ZM-97.42 39.174H-113.042V40.9243H-97.42V39.174ZM-112.18 40.2018L-108.504 19.4602L-110.228 19.1548L-113.904 39.8964L-112.18 40.2018ZM-109.366 18.4323H-124.2V20.1827H-109.366V18.4323ZM-125.062 19.1548L-128.738 39.8964L-127.014 40.2018L-123.339 19.4602L-125.062 19.1548ZM-127.876 39.174H-142.185V40.9243H-127.876V39.174ZM-143.047 39.8956L-145.41 53.1545L-143.687 53.4616L-141.324 40.2027L-143.047 39.8956ZM-144.548 54.1832H-130.108V52.4329H-144.548V54.1832ZM-130.969 53.153L-134.514 72.8444L-132.791 73.1545L-129.246 53.4631L-130.969 53.153ZM-133.652 72.1243H-147.961V73.8746H-133.652V72.1243ZM-148.823 72.8459L-151.186 86.1048L-149.463 86.4119L-147.1 73.153L-148.823 72.8459ZM-150.324 87.1335H-135.884V85.3832H-150.324V87.1335ZM-136.746 86.1056L-140.421 106.847L-138.698 107.153L-135.022 86.4111L-136.746 86.1056ZM-139.56 107.875H-124.857V106.125H-139.56V107.875ZM-123.995 107.153L-120.319 86.4111L-122.043 86.1056L-125.718 106.847L-123.995 107.153ZM-121.181 87.1335H-105.559V85.3832H-121.181V87.1335ZM-106.421 86.1056L-110.097 106.847L-108.373 107.153L-104.697 86.4111L-106.421 86.1056ZM-109.235 107.875H-94.5319V106.125H-109.235V107.875ZM-93.6701 107.153L-89.9944 86.4111L-91.7179 86.1056L-95.3936 106.847L-93.6701 107.153ZM-90.8561 87.1335H-76.4158V85.3832H-90.8561V87.1335ZM-75.5542 86.4119L-73.1912 73.153L-74.9144 72.8459L-77.2774 86.1048L-75.5542 86.4119ZM-74.0528 72.1243H-88.4932V73.8746H-74.0528V72.1243ZM-87.6309 73.1489L-84.2177 53.4575L-85.9423 53.1586L-89.3555 72.85L-87.6309 73.1489ZM-85.08 54.1832H-70.5083V52.4329H-85.08V54.1832ZM-103.196 72.1243H-118.818V73.8746H-103.196V72.1243ZM-117.956 73.1489L-114.542 53.4575L-116.267 53.1586L-119.68 72.85L-117.956 73.1489ZM-115.405 54.1832H-99.7829V52.4329H-115.405V54.1832ZM-100.645 53.1586L-104.058 72.85L-102.334 73.1489L-98.9206 53.4575L-100.645 53.1586ZM-53.6209 107H-54.4961V107.875H-53.6209V107ZM-35.8986 107V107.875H-35.0234V107H-35.8986ZM-35.8986 19.3075H-35.0234V18.4323H-35.8986V19.3075ZM-53.6209 19.3075V18.4323H-54.4961V19.3075H-53.6209ZM-53.6209 107.875H-35.8986V106.125H-53.6209V107.875ZM-35.0234 107V19.3075H-36.7738V107H-35.0234ZM-35.8986 18.4323H-53.6209V20.1827H-35.8986V18.4323ZM-54.4961 19.3075V107H-52.7457V19.3075H-54.4961ZM72.3704 19.3075V18.4323H71.6773L71.5185 19.107L72.3704 19.3075ZM58.1926 79.5633V80.4384H58.8857L59.0445 79.7637L58.1926 79.5633ZM57.4049 79.5633L56.553 79.7637L56.7118 80.4384H57.4049V79.5633ZM43.2271 19.3075L44.079 19.107L43.9203 18.4323H43.2271V19.3075ZM23.4044 19.3075V18.4323H22.7113L22.5525 19.107L23.4044 19.3075ZM9.22658 79.5633V80.4384H9.91972L10.0785 79.7637L9.22658 79.5633ZM8.43892 79.5633L7.58743 79.7655L7.74724 80.4384H8.43892V79.5633ZM-5.87019 19.3075L-5.01869 19.1053L-5.1785 18.4323H-5.87019V19.3075ZM-24.1176 19.3075V18.4323H-25.2565L-24.9632 19.5328L-24.1176 19.3075ZM-0.750412 107L-1.59608 107.225L-1.42293 107.875H-0.750412V107ZM18.2846 107V107.875H18.9709L19.1346 107.209L18.2846 107ZM32.8563 47.6632V46.788H32.17L32.0064 47.4544L32.8563 47.6632ZM33.644 47.6632L34.4939 47.4544L34.3302 46.788H33.644V47.6632ZM48.2156 107L47.3657 107.209L47.5294 107.875H48.2156V107ZM67.3819 107V107.875H68.0554L68.2279 107.224L67.3819 107ZM90.6178 19.3075L91.4638 19.5317L91.7551 18.4323H90.6178V19.3075ZM71.5185 19.107L57.3407 79.3628L59.0445 79.7637L73.2223 19.5079L71.5185 19.107ZM58.1926 78.6881H57.4049V80.4384H58.1926V78.6881ZM58.2569 79.3628L44.079 19.107L42.3752 19.5079L56.553 79.7637L58.2569 79.3628ZM43.2271 18.4323H23.4044V20.1827H43.2271V18.4323ZM22.5525 19.107L8.37466 79.3628L10.0785 79.7637L24.2563 19.5079L22.5525 19.107ZM9.22658 78.6881H8.43892V80.4384H9.22658V78.6881ZM9.29042 79.3611L-5.01869 19.1053L-6.72168 19.5097L7.58743 79.7655L9.29042 79.3611ZM-5.87019 18.4323H-24.1176V20.1827H-5.87019V18.4323ZM-24.9632 19.5328L-1.59608 107.225L0.0952454 106.775L-23.2719 19.0822L-24.9632 19.5328ZM-0.750412 107.875H18.2846V106.125H-0.750412V107.875ZM19.1346 107.209L33.7062 47.8719L32.0064 47.4544L17.4347 106.791L19.1346 107.209ZM32.8563 48.5383H33.644V46.788H32.8563V48.5383ZM32.794 47.8719L47.3657 107.209L49.0655 106.791L34.4939 47.4544L32.794 47.8719ZM48.2156 107.875H67.3819V106.125H48.2156V107.875ZM68.2279 107.224L91.4638 19.5317L89.7718 19.0833L66.5359 106.776L68.2279 107.224ZM90.6178 18.4323H72.3704V20.1827H90.6178V18.4323ZM102.393 107H101.518V107.875H102.393V107ZM120.115 107V107.875H120.99V107H120.115ZM120.115 19.3075H120.99V18.4323H120.115V19.3075ZM102.393 19.3075V18.4323H101.518V19.3075H102.393ZM102.393 107.875H120.115V106.125H102.393V107.875ZM120.99 107V19.3075H119.24V107H120.99ZM120.115 18.4323H102.393V20.1827H120.115V18.4323ZM101.518 19.3075V107H103.268V19.3075H101.518ZM139.247 107H138.372V107.875H139.247V107ZM188.345 107V107.875H189.22V107H188.345ZM188.345 90.5905H189.22V89.7153H188.345V90.5905ZM156.97 90.5905H156.095V91.4657H156.97V90.5905ZM156.97 19.3075H157.845V18.4323H156.97V19.3075ZM139.247 19.3075V18.4323H138.372V19.3075H139.247ZM139.247 107.875H188.345V106.125H139.247V107.875ZM189.22 107V90.5905H187.47V107H189.22ZM188.345 89.7153H156.97V91.4657H188.345V89.7153ZM157.845 90.5905V19.3075H156.095V90.5905H157.845ZM156.97 18.4323H139.247V20.1827H156.97V18.4323ZM138.372 19.3075V107H140.123V19.3075H138.372ZM201.101 107H200.226V107.875H201.101V107ZM250.198 107V107.875H251.074V107H250.198ZM250.198 90.5905H251.074V89.7153H250.198V90.5905ZM218.823 90.5905H217.948V91.4657H218.823V90.5905ZM218.823 19.3075H219.699V18.4323H218.823V19.3075ZM201.101 19.3075V18.4323H200.226V19.3075H201.101ZM201.101 107.875H250.198V106.125H201.101V107.875ZM251.074 107V90.5905H249.323V107H251.074ZM250.198 89.7153H218.823V91.4657H250.198V89.7153ZM219.699 90.5905V19.3075H217.948V90.5905H219.699ZM218.823 18.4323H201.101V20.1827H218.823V18.4323ZM200.226 19.3075V107H201.976V19.3075H200.226ZM313.234 19.3075V18.4323H312.358V19.3075H313.234ZM313.234 74.4435V75.3187H314.109V74.4435H313.234ZM312.446 74.4435L311.686 74.8777L311.938 75.3187H312.446V74.4435ZM280.94 19.3075L281.699 18.8733L281.447 18.4323H280.94V19.3075ZM262.955 19.3075V18.4323H262.08V19.3075H262.955ZM262.955 107H262.08V107.875H262.955V107ZM280.677 107V107.875H281.552V107H280.677ZM280.677 52.1265V51.2514H279.802V52.1265H280.677ZM281.465 52.1265L282.224 51.6921L281.972 51.2514H281.465V52.1265ZM312.84 107L312.08 107.434L312.332 107.875H312.84V107ZM330.825 107V107.875H331.7V107H330.825ZM330.825 19.3075H331.7V18.4323H330.825V19.3075ZM312.358 19.3075V74.4435H314.109V19.3075H312.358ZM313.234 73.5683H312.446V75.3187H313.234V73.5683ZM313.206 74.0093L281.699 18.8733L280.18 19.7417L311.686 74.8777L313.206 74.0093ZM280.94 18.4323H262.955V20.1827H280.94V18.4323ZM262.08 19.3075V107H263.83V19.3075H262.08ZM262.955 107.875H280.677V106.125H262.955V107.875ZM281.552 107V52.1265H279.802V107H281.552ZM280.677 53.0017H281.465V51.2514H280.677V53.0017ZM280.705 52.561L312.08 107.434L313.599 106.566L282.224 51.6921L280.705 52.561ZM312.84 107.875H330.825V106.125H312.84V107.875ZM331.7 107V19.3075H329.949V107H331.7ZM330.825 18.4323H313.234V20.1827H330.825V18.4323ZM383.542 109.976C395.789 109.976 405.343 105.48 411.813 97.3035C418.26 89.156 421.569 77.4524 421.569 63.1537H419.818C419.818 77.2108 416.563 88.4805 410.44 96.2174C404.341 103.925 395.319 108.225 383.542 108.225V109.976ZM421.569 63.1537C421.569 48.8551 418.26 37.1515 411.813 29.004C405.343 20.8277 395.789 16.3319 383.542 16.3319V18.0823C395.319 18.0823 404.341 22.382 410.44 30.0901C416.563 37.827 419.818 49.0967 419.818 63.1537H421.569ZM383.542 16.3319C371.296 16.3319 361.742 20.8277 355.272 29.004C348.824 37.1515 345.516 48.8551 345.516 63.1537H347.266C347.266 49.0967 350.522 37.827 356.644 30.0901C362.744 22.382 371.765 18.0823 383.542 18.0823V16.3319ZM345.516 63.1537C345.516 77.4524 348.824 89.156 355.272 97.3035C361.742 105.48 371.296 109.976 383.542 109.976V108.225C371.765 108.225 362.744 103.925 356.644 96.2174C350.522 88.4805 347.266 77.2108 347.266 63.1537H345.516ZM383.542 91.1593C377.711 91.1593 373.303 88.8614 370.309 84.3012C367.277 79.6828 365.645 72.6622 365.645 63.1537H363.895C363.895 72.8116 365.544 80.2314 368.846 85.2618C372.187 90.3504 377.165 92.9097 383.542 92.9097V91.1593ZM365.645 63.1537C365.645 53.6453 367.277 46.6247 370.309 42.0063C373.303 37.4461 377.711 35.1482 383.542 35.1482V33.3978C377.165 33.3978 372.187 35.9571 368.846 41.0457C365.544 46.0761 363.895 53.4959 363.895 63.1537H365.645ZM383.542 35.1482C389.374 35.1482 393.781 37.4461 396.775 42.0063C399.807 46.6247 401.44 53.6453 401.44 63.1537H403.19C403.19 53.4959 401.541 46.0761 398.238 41.0457C394.898 35.9571 389.919 33.3978 383.542 33.3978V35.1482ZM401.44 63.1537C401.44 72.6622 399.807 79.6828 396.775 84.3012C393.781 88.8614 389.374 91.1593 383.542 91.1593V92.9097C389.919 92.9097 394.898 90.3504 398.238 85.2618C401.541 80.2314 403.19 72.8116 403.19 63.1537H401.44ZM427.538 35.717H426.663V36.5922H427.538V35.717ZM449.986 35.717H450.862V34.8418H449.986V35.717ZM449.986 107H449.111V107.875H449.986V107ZM467.709 107V107.875H468.584V107H467.709ZM467.709 35.717V34.8418H466.833V35.717H467.709ZM490.157 35.717V36.5922H491.032V35.717H490.157ZM490.157 19.3075H491.032V18.4323H490.157V19.3075ZM427.538 19.3075V18.4323H426.663V19.3075H427.538ZM427.538 36.5922H449.986V34.8418H427.538V36.5922ZM449.111 35.717V107H450.862V35.717H449.111ZM449.986 107.875H467.709V106.125H449.986V107.875ZM468.584 107V35.717H466.833V107H468.584ZM467.709 36.5922H490.157V34.8418H467.709V36.5922ZM491.032 35.717V19.3075H489.282V35.717H491.032ZM490.157 18.4323H427.538V20.1827H490.157V18.4323ZM426.663 19.3075V35.717H428.413V19.3075H426.663ZM536.369 55.671L536.139 56.5154L536.149 56.518L536.369 55.671ZM526.261 52.9142L526.491 52.0699L526.489 52.0693L526.261 52.9142ZM539.651 43.7249L538.79 43.8799L538.919 44.6H539.651V43.7249ZM556.98 43.7249V44.6H557.952L557.85 43.6329L556.98 43.7249ZM518.778 69.3237L519.019 68.4822L519.009 68.4796L518.778 69.3237ZM528.886 72.2118L528.646 73.0534L528.659 73.0569L528.886 72.2118ZM515.102 82.1888L515.958 82.0054L515.81 81.3136H515.102V82.1888ZM497.511 82.1888V81.3136H496.553L496.64 82.268L497.511 82.1888ZM528.099 109.976C536.476 109.976 544.047 107.428 549.536 102.568C555.037 97.6967 558.38 90.5593 558.38 81.5324H556.63C556.63 90.0965 553.474 96.7431 548.375 101.258C543.263 105.784 536.131 108.225 528.099 108.225V109.976ZM558.38 81.5324C558.38 68.3594 550.062 58.3268 536.589 54.824L536.149 56.518C548.932 59.8415 556.63 69.2379 556.63 81.5324H558.38ZM536.599 54.8267L526.491 52.0699L526.031 53.7585L536.139 56.5153L536.599 54.8267ZM526.489 52.0693C524.101 51.4238 522.031 50.5814 520.561 49.2604C519.133 47.9761 518.209 46.1834 518.209 43.4623H516.459C516.459 46.6487 517.571 48.9255 519.391 50.5621C521.171 52.162 523.564 53.0919 526.033 53.7591L526.489 52.0693ZM518.209 43.4623C518.209 40.7526 519.255 38.6008 520.961 37.1155C522.679 35.6198 525.122 34.7543 527.968 34.7543V33.004C524.775 33.004 521.901 33.9763 519.812 35.7954C517.711 37.6249 516.459 40.2646 516.459 43.4623H518.209ZM527.968 34.7543C531.243 34.7543 533.643 35.5401 535.358 37.0059C537.076 38.4742 538.222 40.7234 538.79 43.8799L540.512 43.5698C539.899 40.1626 538.617 37.4889 536.495 35.6753C534.37 33.8592 531.519 33.004 527.968 33.004V34.7543ZM539.651 44.6H556.98V42.8497H539.651V44.6ZM557.85 43.6329C556.981 35.4126 554.096 28.5687 549.084 23.7782C544.065 18.9806 537.005 16.3319 527.968 16.3319V18.0823C536.653 18.0823 543.246 20.619 547.875 25.0435C552.511 29.4751 555.271 35.8902 556.109 43.8169L557.85 43.6329ZM527.968 16.3319C519.636 16.3319 512.227 19.0883 506.894 24.0315C501.553 28.9811 498.343 36.0774 498.343 44.6438H500.093C500.093 36.5382 503.119 29.9161 508.083 25.3153C513.055 20.7082 520.021 18.0823 527.968 18.0823V16.3319ZM498.343 44.6438C498.343 50.178 499.795 55.5841 503.071 60.1064C506.352 64.6349 511.421 68.2182 518.547 70.1679L519.009 68.4796C512.22 66.6223 507.509 63.2479 504.489 59.0794C501.464 54.9046 500.093 49.8743 500.093 44.6438H498.343ZM518.538 70.1652L528.646 73.0533L529.127 71.3703L519.019 68.4822L518.538 70.1652ZM528.659 73.0569C532.027 73.9636 534.487 75.0666 536.103 76.5625C537.676 78.0189 538.513 79.909 538.513 82.5826H540.264C540.264 79.4801 539.264 77.1037 537.292 75.2782C535.363 73.4922 532.572 72.2978 529.114 71.3667L528.659 73.0569ZM538.513 82.5826C538.513 85.203 537.635 87.4173 535.954 88.9816C534.267 90.5504 531.679 91.5532 528.099 91.5532V93.3035C532.002 93.3035 535.058 92.2058 537.146 90.263C539.239 88.3157 540.264 85.6071 540.264 82.5826H538.513ZM528.099 91.5532C524.939 91.5532 522.285 90.8579 520.248 89.3603C518.223 87.8711 516.711 85.517 515.958 82.0054L514.247 82.3722C515.07 86.212 516.773 88.9778 519.212 90.7705C521.638 92.5547 524.695 93.3035 528.099 93.3035V91.5532ZM515.102 81.3136H497.511V83.064H515.102V81.3136ZM496.64 82.268C497.443 91.0987 500.599 98.0557 505.974 102.799C511.345 107.539 518.825 109.976 528.099 109.976V108.225C519.125 108.225 512.1 105.871 507.132 101.487C502.169 97.1062 499.156 90.6073 498.383 82.1096L496.64 82.268ZM564.706 35.717H563.831V36.5922H564.706V35.717ZM587.155 35.717H588.03V34.8418H587.155V35.717ZM587.155 107H586.279V107.875H587.155V107ZM604.877 107V107.875H605.752V107H604.877ZM604.877 35.717V34.8418H604.002V35.717H604.877ZM627.325 35.717V36.5922H628.2V35.717H627.325ZM627.325 19.3075H628.2V18.4323H627.325V19.3075ZM564.706 19.3075V18.4323H563.831V19.3075H564.706ZM564.706 36.5922H587.155V34.8418H564.706V36.5922ZM586.279 35.717V107H588.03V35.717H586.279ZM587.155 107.875H604.877V106.125H587.155V107.875ZM605.752 107V35.717H604.002V107H605.752ZM604.877 36.5922H627.325V34.8418H604.877V36.5922ZM628.2 35.717V19.3075H626.45V35.717H628.2ZM627.325 18.4323H564.706V20.1827H627.325V18.4323ZM563.831 19.3075V35.717H565.582V19.3075H563.831ZM671.34 109.976C683.586 109.976 693.14 105.48 699.61 97.3035C706.058 89.156 709.366 77.4524 709.366 63.1537H707.616C707.616 77.2108 704.36 88.4805 698.238 96.2174C692.138 103.925 683.117 108.225 671.34 108.225V109.976ZM709.366 63.1537C709.366 48.8551 706.058 37.1515 699.61 29.004C693.14 20.8277 683.586 16.3319 671.34 16.3319V18.0823C683.117 18.0823 692.138 22.382 698.238 30.0901C704.36 37.827 707.616 49.0967 707.616 63.1537H709.366ZM671.34 16.3319C659.093 16.3319 649.539 20.8277 643.069 29.004C636.622 37.1515 633.313 48.8551 633.313 63.1537H635.064C635.064 49.0967 638.319 37.827 644.442 30.0901C650.541 22.382 659.563 18.0823 671.34 18.0823V16.3319ZM633.313 63.1537C633.313 77.4524 636.622 89.156 643.069 97.3035C649.539 105.48 659.093 109.976 671.34 109.976V108.225C659.563 108.225 650.541 103.925 644.442 96.2174C638.319 88.4805 635.064 77.2108 635.064 63.1537H633.313ZM671.34 91.1593C665.508 91.1593 661.1 88.8614 658.107 84.3012C655.075 79.6828 653.442 72.6622 653.442 63.1537H651.692C651.692 72.8116 653.341 80.2314 656.643 85.2618C659.984 90.3504 664.962 92.9097 671.34 92.9097V91.1593ZM653.442 63.1537C653.442 53.6453 655.075 46.6247 658.107 42.0063C661.1 37.4461 665.508 35.1482 671.34 35.1482V33.3978C664.962 33.3978 659.984 35.9571 656.643 41.0457C653.341 46.0761 651.692 53.4959 651.692 63.1537H653.442ZM671.34 35.1482C677.171 35.1482 681.579 37.4461 684.573 42.0063C687.604 46.6247 689.237 53.6453 689.237 63.1537H690.987C690.987 53.4959 689.338 46.0761 686.036 41.0457C682.695 35.9571 677.717 33.3978 671.34 33.3978V35.1482ZM689.237 63.1537C689.237 72.6622 687.604 79.6828 684.573 84.3012C681.579 88.8614 677.171 91.1593 671.34 91.1593V92.9097C677.717 92.9097 682.695 90.3504 686.036 85.2618C689.338 80.2314 690.987 72.8116 690.987 63.1537H689.237ZM724.073 19.3075V18.4323H723.197V19.3075H724.073ZM724.073 107H723.197V107.875H724.073V107ZM741.795 107V107.875H742.67V107H741.795ZM741.795 77.4629V76.5877H740.92V77.4629H741.795ZM741.795 61.0533H740.92V61.9285H741.795V61.0533ZM741.795 35.717V34.8418H740.92V35.717H741.795ZM756.76 18.4323H724.073V20.1827H756.76V18.4323ZM723.197 19.3075V107H724.948V19.3075H723.197ZM724.073 107.875H741.795V106.125H724.073V107.875ZM742.67 107V77.4629H740.92V107H742.67ZM741.795 78.338H756.76V76.5877H741.795V78.338ZM756.76 78.338C765.408 78.338 772.863 75.654 778.16 70.5269C783.462 65.3952 786.516 57.9 786.516 48.4508H784.766C784.766 57.5115 781.847 64.5224 776.943 69.2692C772.033 74.0207 765.047 76.5877 756.76 76.5877V78.338ZM786.516 48.4508C786.516 38.9377 783.463 31.4097 778.161 26.2608C772.863 21.1164 765.408 18.4323 756.76 18.4323V20.1827C765.047 20.1827 772.033 22.7496 776.942 27.5166C781.846 32.2791 784.766 39.3227 784.766 48.4508H786.516ZM755.448 60.1782H741.795V61.9285H755.448V60.1782ZM742.67 61.0533V35.717H740.92V61.0533H742.67ZM741.795 36.5922H755.448V34.8418H741.795V36.5922ZM755.448 36.5922C758.598 36.5922 761.315 37.639 763.242 39.5966C765.168 41.5526 766.387 44.4997 766.387 48.4508H768.138C768.138 44.1315 766.797 40.7117 764.489 38.3685C762.183 36.0267 758.992 34.8418 755.448 34.8418V36.5922ZM766.387 48.4508C766.387 52.3326 765.171 55.2467 763.245 57.1878C761.316 59.1311 758.599 60.1782 755.448 60.1782V61.9285C758.992 61.9285 762.182 60.7439 764.487 58.4207C766.794 56.0953 768.138 52.7082 768.138 48.4508H766.387Z" fill="#333333"/>
</svg>
