<svg width="33" height="25" viewBox="0 0 33 25" fill="none" xmlns="http://www.w3.org/2000/svg">
<path d="M32.0736 8.62296L22.65 0.545558C22.4514 0.37467 22.1714 0.335861 21.9308 0.444969C21.6922 0.554771 21.5391 0.79337 21.5391 1.05633V5.77738C14.0177 5.98644 10.3892 9.70956 8.66438 12.8471C7.16431 15.5744 6.82778 18.2747 6.75218 19.383C6.73773 19.5526 6.73047 19.7255 6.73047 19.9017V19.9036C6.73047 19.9036 6.73047 19.9042 6.73047 19.9049V19.9056C6.73047 19.9062 6.73047 19.9062 6.73047 19.9062V19.9082V19.9088C6.73047 19.9088 6.73047 19.9094 6.73047 19.9101V19.9107C6.73047 19.9114 6.73047 19.9121 6.73047 19.9121C6.73047 19.9127 6.73047 19.9127 6.73047 19.9127V19.9147C6.73047 19.9153 6.73047 19.916 6.73047 19.9166C6.73047 19.9166 6.73047 19.9172 6.73047 19.9186V19.9192V19.9205V19.9212C6.73047 19.9218 6.73047 19.9225 6.73047 19.9231L6.7311 19.9251C6.7311 19.9251 6.7311 19.9251 6.7311 19.9257C6.7311 19.927 6.7311 19.9277 6.7311 19.9277C6.7311 19.9283 6.7311 19.929 6.7311 19.9296V19.9316V19.9335V19.9342V19.9361C6.7311 19.9367 6.7311 19.9374 6.7311 19.9381C6.7311 19.9381 6.7311 19.9394 6.73173 19.94C6.73173 19.94 6.73173 19.9407 6.73173 19.942V19.9426C6.73173 19.9432 6.73173 19.9439 6.73173 19.9446V19.9465C6.73173 19.9472 6.73173 19.9479 6.73173 19.9485C6.7311 19.9504 6.73306 19.9511 6.73236 19.9511V19.9531C6.73236 19.9537 6.73236 19.9544 6.73236 19.955V19.957C6.73236 19.9583 6.73299 19.9597 6.73299 19.9597V19.9616C6.73299 19.9622 6.73299 19.9629 6.73299 19.9636V19.9642V19.9655V19.9662L6.73362 19.9675V19.9681C6.73362 19.9687 6.73362 19.9694 6.73362 19.9694C6.73362 19.9701 6.73362 19.9701 6.73362 19.9701V19.972V19.9727C6.73426 19.9733 6.73425 19.9733 6.73425 19.974C6.73425 19.974 6.73425 19.9746 6.73425 19.9753V19.9759C6.73425 19.9766 6.73425 19.9766 6.73425 19.9766V19.9779C6.73489 19.9798 6.73489 19.9798 6.73489 19.9798C6.73489 19.9805 6.73489 19.9812 6.73489 19.9818V19.9824V19.9838V19.9844C6.73552 19.985 6.73552 19.9857 6.73552 19.9857C6.73552 19.987 6.73552 19.9877 6.73552 19.9877C6.77761 20.3196 7.06089 20.576 7.40335 20.576C7.77473 20.576 8.0758 20.2756 8.07649 19.9042V19.9036C8.07649 19.8694 8.07712 19.7859 8.08305 19.6584C8.37687 14.0611 18.7175 12.7911 21.5388 12.5486V17.2104C21.5388 17.4734 21.692 17.712 21.9306 17.8218C22.1705 17.9309 22.4498 17.8928 22.6497 17.7212L32.0733 9.6438C32.2226 9.51627 32.3086 9.3296 32.3086 9.13303C32.3089 8.93716 32.2227 8.75049 32.0736 8.62296Z" fill="#E20074"/>
<path d="M27.8791 15.5297C27.6392 15.4193 27.3599 15.4581 27.1594 15.6303L25.8132 16.7846C25.6646 16.9122 25.5785 17.0988 25.5785 17.2954V21.9224H2.69249V8.46H10.2151C10.3781 8.46 10.5352 8.40081 10.6574 8.29372C11.1925 7.827 11.771 7.39448 12.3764 7.00796C12.6288 6.84755 12.7445 6.53929 12.661 6.25203C12.5775 5.96478 12.3139 5.76758 12.0148 5.76758H2.69249C1.20751 5.76758 0 6.97509 0 8.46V21.9223C0 23.4072 1.20751 24.6148 2.69249 24.6148H25.5785C27.0634 24.6148 28.271 23.4073 28.271 21.9223V16.141C28.2709 15.8781 28.1177 15.6395 27.8791 15.5297Z" fill="#E20074"/>
</svg>
