<svg width="72" height="36" viewBox="0 0 72 36" fill="none" xmlns="http://www.w3.org/2000/svg">
<path fill-rule="evenodd" clip-rule="evenodd" d="M0 23.3849H7.14764V16.2373H0V23.3849Z" fill="#E20074"/>
<path fill-rule="evenodd" clip-rule="evenodd" d="M21.7959 23.3849H28.9435V16.2373H21.7959V23.3849Z" fill="#E20074"/>
<path fill-rule="evenodd" clip-rule="evenodd" d="M43.2388 23.3849H50.3864V16.2373H43.2388V23.3849Z" fill="#E20074"/>
<path fill-rule="evenodd" clip-rule="evenodd" d="M64.6816 23.3849H71.8293V16.2373H64.6816V23.3849Z" fill="#E20074"/>
<path fill-rule="evenodd" clip-rule="evenodd" d="M28.5896 0H0.352923L0 12.4548L1.87277 12.7792C2.2219 9.10959 3.18485 6.38582 4.76256 4.60887C6.42282 2.74938 8.70828 1.7779 11.6474 1.69441V27.75C11.6474 30.025 11.3296 31.5022 10.6655 32.1834C10.101 32.7659 9.14564 33.1226 7.80131 33.2545C7.40285 33.2877 6.72167 33.3047 5.75872 33.3047V35.2971H23.1838V33.3047C22.2209 33.3047 21.5406 33.2877 21.1412 33.2545C19.7969 33.1226 18.8415 32.7659 18.2771 32.1834C17.6129 31.5022 17.2913 30.025 17.2913 27.75V1.69441C20.2305 1.7779 22.5207 2.74938 24.1809 4.60887C25.7586 6.38582 26.7216 9.10959 27.0698 12.7792L28.9435 12.4548L28.5896 0Z" fill="#E20074"/>
</svg>
